<svg xmlns="http://www.w3.org/2000/svg" width="900" height="800" viewBox="0 0 900 800"><rect width="100%" height="100%" fill="#DDDDDD"/><path fill="#999999" d="M198.17 382.81q0 7.2 3.72 10.97 3.72 3.78 10.56 3.78 3.57 0 6.36-1.13 2.8-1.13 4.7-3.09 1.91-1.97 2.89-4.64.98-2.68.98-5.78 0-3.51-1.07-6.27-1.07-2.77-3.03-4.67-1.97-1.91-4.67-2.92-2.71-1.01-5.92-1.01-3.34 0-6.01 1.1-2.68 1.1-4.59 3.06-1.9 1.97-2.91 4.68-1.01 2.7-1.01 5.92Zm-7.2 60.21 26.71-33.38q1.02-1.25 1.91-2.44.89-1.19 1.72-2.38-2.97 1.9-6.54 2.89-3.57.98-7.5.98-4.46 0-8.75-1.55-4.28-1.55-7.61-4.67t-5.39-7.73q-2.05-4.62-2.05-10.8 0-5.78 2.14-10.83 2.15-5.06 6.01-8.87 3.87-3.81 9.28-6.01 5.42-2.2 11.96-2.2 6.61 0 11.87 2.08 5.27 2.09 8.99 5.83 3.72 3.75 5.71 8.99 1.99 5.23 1.99 11.48 0 3.99-.68 7.56-.68 3.57-1.93 6.87-1.25 3.3-3.04 6.46-1.78 3.15-3.98 6.24l-19.7 28.09q-1.01 1.43-3.03 2.41-2.03.98-4.59.98h-13.5ZM313.6 400q0 11.25-2.41 19.55t-6.67 13.71q-4.25 5.42-10.05 8.06-5.8 2.65-12.53 2.65-6.72 0-12.46-2.65-5.74-2.64-9.97-8.06-4.22-5.41-6.6-13.71T250.53 400q0-11.3 2.38-19.57t6.6-13.69q4.23-5.41 9.97-8.06 5.74-2.65 12.46-2.65 6.73 0 12.53 2.65 5.8 2.65 10.05 8.06 4.26 5.42 6.67 13.69T313.6 400Zm-15.17 0q0-9.34-1.37-15.47-1.37-6.13-3.66-9.76t-5.27-5.08q-2.97-1.46-6.19-1.46-3.15 0-6.09 1.46-2.95 1.45-5.21 5.08t-3.6 9.76q-1.34 6.13-1.34 15.47t1.34 15.47q1.34 6.13 3.6 9.76t5.21 5.09q2.94 1.45 6.09 1.45 3.22 0 6.19-1.45 2.98-1.46 5.27-5.09 2.29-3.63 3.66-9.76t1.37-15.47Zm84.19 0q0 11.25-2.41 19.55t-6.67 13.71q-4.25 5.42-10.05 8.06-5.8 2.65-12.53 2.65-6.72 0-12.46-2.65-5.74-2.64-9.97-8.06-4.22-5.41-6.6-13.71T319.55 400q0-11.3 2.38-19.57t6.6-13.69q4.23-5.41 9.97-8.06 5.74-2.65 12.46-2.65 6.73 0 12.53 2.65 5.8 2.65 10.05 8.06 4.26 5.42 6.67 13.69t2.41 19.57Zm-15.17 0q0-9.34-1.37-15.47-1.37-6.13-3.66-9.76t-5.27-5.08q-2.97-1.46-6.19-1.46-3.15 0-6.09 1.46-2.95 1.45-5.21 5.08t-3.6 9.76q-1.34 6.13-1.34 15.47t1.34 15.47q1.34 6.13 3.6 9.76t5.21 5.09q2.94 1.45 6.09 1.45 3.22 0 6.19-1.45 2.98-1.46 5.27-5.09 2.29-3.63 3.66-9.76t1.37-15.47Zm109.65 23.33-7.79 7.67-20.17-20.17-20.35 20.29-7.79-7.68 20.34-20.4-19.39-19.4 7.73-7.74 19.4 19.4 19.28-19.28 7.85 7.74-19.34 19.34 20.23 20.23Zm69.86 9.16q3.63 0 6.36-1.04 2.74-1.04 4.61-2.89 1.88-1.84 2.83-4.4.95-2.56.95-5.54 0-7.08-3.92-10.71-3.93-3.62-10.83-3.62t-10.83 3.62q-3.93 3.63-3.93 10.71 0 2.98.95 5.54.96 2.56 2.83 4.4 1.87 1.85 4.61 2.89t6.37 1.04Zm0-65.39q-3.28 0-5.66 1.01-2.38 1.01-3.95 2.71-1.58 1.69-2.32 3.89-.75 2.21-.75 4.64 0 2.56.63 4.97.62 2.41 2.11 4.29 1.49 1.87 3.93 3 2.44 1.13 6.01 1.13t6.01-1.13q2.44-1.13 3.92-3 1.49-1.88 2.12-4.29.62-2.41.62-4.97 0-2.43-.77-4.64-.78-2.2-2.32-3.89-1.55-1.7-3.93-2.71t-5.65-1.01Zm14.52 31.06q7.85 2.56 11.6 7.82 3.75 5.27 3.75 12.88 0 5.71-2.18 10.36-2.17 4.64-6.09 7.91-3.93 3.27-9.44 5.06-5.5 1.78-12.16 1.78-6.67 0-12.17-1.78-5.5-1.79-9.43-5.06-3.93-3.27-6.1-7.91-2.17-4.65-2.17-10.36 0-7.61 3.75-12.88 3.75-5.26 11.6-7.82-6.25-2.62-9.37-7.44-3.13-4.82-3.13-11.6 0-4.88 2-9.11 1.99-4.22 5.56-7.34 3.57-3.13 8.54-4.88 4.97-1.76 10.92-1.76t10.92 1.76q4.96 1.75 8.53 4.88 3.57 3.12 5.57 7.34 1.99 4.23 1.99 9.11 0 6.78-3.12 11.6-3.13 4.82-9.37 7.44Zm86.03 1.84q0 11.25-2.41 19.55t-6.66 13.71q-4.26 5.42-10.06 8.06-5.8 2.65-12.52 2.65-6.73 0-12.47-2.65-5.74-2.64-9.96-8.06-4.23-5.41-6.61-13.71T584.44 400q0-11.3 2.38-19.57t6.61-13.69q4.22-5.41 9.96-8.06 5.74-2.65 12.47-2.65 6.72 0 12.52 2.65t10.06 8.06q4.25 5.42 6.66 13.69t2.41 19.57Zm-15.17 0q0-9.34-1.37-15.47-1.37-6.13-3.66-9.76t-5.26-5.08q-2.98-1.46-6.19-1.46-3.16 0-6.1 1.46-2.95 1.45-5.21 5.08t-3.6 9.76q-1.34 6.13-1.34 15.47t1.34 15.47q1.34 6.13 3.6 9.76t5.21 5.09q2.94 1.45 6.1 1.45 3.21 0 6.19-1.45 2.97-1.46 5.26-5.09 2.29-3.63 3.66-9.76t1.37-15.47Zm84.19 0q0 11.25-2.41 19.55t-6.66 13.71q-4.26 5.42-10.06 8.06-5.8 2.65-12.52 2.65-6.73 0-12.47-2.65-5.74-2.64-9.96-8.06-4.23-5.41-6.61-13.71T653.46 400q0-11.3 2.38-19.57t6.61-13.69q4.22-5.41 9.96-8.06 5.74-2.65 12.47-2.65 6.72 0 12.52 2.65t10.06 8.06q4.25 5.42 6.66 13.69t2.41 19.57Zm-15.17 0q0-9.34-1.37-15.47-1.37-6.13-3.66-9.76t-5.26-5.08q-2.98-1.46-6.19-1.46-3.16 0-6.1 1.46-2.95 1.45-5.21 5.08t-3.6 9.76q-1.34 6.13-1.34 15.47t1.34 15.47q1.34 6.13 3.6 9.76t5.21 5.09q2.94 1.45 6.1 1.45 3.21 0 6.19-1.45 2.97-1.46 5.26-5.09 2.29-3.63 3.66-9.76t1.37-15.47Z"/></svg>